<?xml version="1.0"?>
<svg version="1.1" xmlns="http://www.w3.org/2000/svg" width="200px" height="40px" style=""><path fill="#310ff2" d="M15.595703125,16.416015625q0-0.68359375,0.234375-0.91796875t0.654296875-0.234375q0.1171875,0,0.2490234375,0.01953125t0.2490234375,0.05859375q0.654296875-0.126953125,1.240234375-0.126953125q0.947265625,0,1.71875,0.33203125q1.240234375,0.52734375,2.05078125,1.5625t1.19140625,2.431640625t0.380859375,2.861328125q0,0.8203125-0.1123046875,1.708984375t-0.4345703125,1.650390625q-0.283203125,0.68359375-0.78125,1.4306640625t-1.1279296875,1.416015625t-1.357421875,1.171875t-1.4697265625,0.6787109375l0,0.078125q0,0.1953125-0.1025390625,0.3173828125t-0.2490234375,0.185546875t-0.3369140625,0.0830078125t-0.3564453125,0.01953125q-0.09765625,0-0.2783203125-0.01953125t-0.3515625-0.0732421875t-0.2880859375-0.1416015625t-0.1171875-0.244140625q0-1.77734375-0.0927734375-3.5595703125t-0.2099609375-3.564453125t-0.2099609375-3.5595703125t-0.0927734375-3.564453125z M17.44140625,15.91796875q0.09765625,0.9375,0.126953125,1.8701171875t0.087890625,1.8701171875q0.15625,2.421875,0.361328125,4.8193359375t0.244140625,4.8193359375q0.9375-0.615234375,1.6064453125-1.40625t1.0986328125-1.71875t0.6298828125-1.9482421875t0.2001953125-2.1044921875q0-0.78125-0.13671875-1.71875t-0.46875-1.806640625t-0.8935546875-1.572265625t-1.4013671875-1.005859375q-0.17578125-0.05859375-0.4248046875-0.09765625t-0.7958984375-0.0390625q-0.05859375,0-0.1171875,0.01953125t-0.1171875,0.01953125z M25.35810546875,26.54296875q0-0.556640625,0.1416015625-1.1474609375t0.44921875-1.064453125t0.7763671875-0.771484375t1.1328125-0.2978515625q0.498046875,0,1.0498046875,0.1708984375t1.0107421875,0.48828125t0.7470703125,0.7763671875t0.2880859375,1.025390625q0,0.68359375-0.2490234375,1.298828125t-0.6982421875,1.0986328125t-1.0498046875,0.76171875t-1.3037109375,0.2783203125q-0.576171875,0-1.005859375-0.2099609375t-0.7177734375-0.5615234375t-0.4296875-0.830078125t-0.1416015625-1.015625z M26.79365234375,26.5234375q0,0.17578125,0.0537109375,0.517578125t0.1611328125,0.6689453125t0.2783203125,0.56640625t0.4150390625,0.2197265625q0.517578125-0.05859375,0.8544921875-0.3369140625t0.546875-0.6787109375t0.29296875-0.869140625t0.0830078125-0.888671875q0-0.537109375-0.2099609375-0.8984375t-0.6884765625-0.5859375q0,0.01953125,0.01953125,0.01953125t0.01953125-0.01953125l-0.244140625-0.05859375q-0.09765625-0.0390625-0.2392578125-0.087890625t-0.2783203125-0.21484375q-0.380859375,0.13671875-0.5908203125,0.3515625t-0.3173828125,0.5224609375t-0.1318359375,0.7373046875t-0.0244140625,1.03515625z M32.7669921875,26.40625l0-0.283203125q0-0.3515625,0.01953125-0.6640625q0.01953125-0.439453125,0.01953125-0.72265625q0-0.15625,0.01953125-0.3564453125t0.09765625-0.3173828125q0.09765625-0.09765625,0.2294921875-0.2001953125t0.2880859375-0.1025390625q0.498046875,0,0.78125,0.1123046875t0.302734375,0.4638671875l0.0390625,0.302734375q0.17578125-0.419921875,0.46875-1.0400390625t0.6787109375-1.181640625t0.869140625-0.95703125t1.0205078125-0.3955078125q0.498046875,0,0.8203125,0.46875t0.5126953125,1.1962890625t0.2685546875,1.62109375t0.107421875,1.7529296875t0.0390625,1.5673828125t0.068359375,1.0693359375q0.0390625,0.302734375,0.1318359375,0.6396484375t0.0927734375,0.6201171875q0,0.078125-0.1123046875,0.1513671875t-0.2392578125,0.1220703125t-0.2587890625,0.078125t-0.1904296875,0.029296875q-0.380859375,0-0.5419921875-0.5712890625t-0.2001953125-1.4306640625t-0.0390625-1.8603515625t-0.068359375-1.8603515625t-0.2783203125-1.4306640625t-0.6689453125-0.5908203125q-0.419921875,0-0.869140625,0.5419921875t-0.771484375,1.4404296875q-0.3125,0.8984375-0.4296875,2.041015625q-0.0390625,0.361328125-0.0390625,0.72265625q0,0.791015625,0.166015625,1.58203125q0.01953125,0.13671875-0.1123046875,0.205078125t-0.3271484375,0.107421875t-0.3955078125,0.048828125t-0.3076171875,0.009765625q-0.380859375,0-0.6103515625-0.2685546875t-0.3564453125-0.6884765625t-0.1708984375-0.9423828125t-0.0537109375-1.0302734375z M41.64072265625,30.322265625l0.205078125-0.244140625q-0.0390625-1.640625-0.087890625-3.271484375t-0.048828125-3.2421875q0-2.001953125,0.2392578125-3.8720703125t0.4736328125-3.8330078125q0.01953125-0.1171875,0.1123046875-0.1904296875t0.2294921875-0.1220703125t0.2783203125-0.068359375t0.2587890625-0.01953125q0.15625,0,0.390625,0.05859375t0.46875,0.341796875q0,0.09765625,0.0146484375,0.1708984375t0.0146484375,0.1708984375q0,0.7421875-0.2001953125,1.591796875t-0.2685546875,1.630859375q-0.078125,0.95703125-0.107421875,1.89453125t-0.029296875,1.904296875l0.01953125,0.859375q0.1953125-0.244140625,0.556640625-0.625t0.78125-0.7373046875t0.83984375-0.6103515625t0.76171875-0.25390625q0.517578125,0,0.7177734375,0.29296875t0.2001953125,0.771484375q0,0.439453125-0.1904296875,0.91796875t-0.498046875,0.9326171875t-0.6982421875,0.8154296875t-0.771484375,0.537109375q0.517578125,0.64453125,1.0595703125,1.23046875t1.1865234375,1.103515625l0,0.224609375q-0.01953125,0.09765625-0.1220703125,0.146484375t-0.224609375,0.078125t-0.2392578125,0.0439453125t-0.1953125,0.0146484375q-0.478515625,0-0.9228515625-0.283203125t-0.830078125-0.693359375t-0.7275390625-0.869140625t-0.625-0.80078125q0.05859375,1.123046875,0.1318359375,2.2412109375t0.0732421875,2.2412109375q0,0.13671875-0.1220703125,0.2294921875t-0.283203125,0.1416015625t-0.3271484375,0.068359375t-0.2734375,0.01953125q-0.576171875,0-0.8154296875-0.2099609375t-0.4052734375-0.7275390625z M43.64267578125,25.72265625q0.244140625,0,0.5810546875-0.2099609375t0.6982421875-0.5224609375t0.673828125-0.6591796875t0.5029296875-0.6591796875t0.1904296875-0.5029296875t-0.263671875-0.1708984375q-0.09765625,0-0.400390625,0.283203125t-0.673828125,0.693359375t-0.7421875,0.888671875t-0.56640625,0.859375z M49.54765625,26.7578125q0-0.68359375,0.1513671875-1.611328125t0.5126953125-1.7578125t0.9521484375-1.4111328125t1.4892578125-0.5810546875q0.83984375,0,1.259765625,0.4833984375t0.419921875,1.3037109375q0,0.537109375-0.2001953125,1.1767578125t-0.5712890625,1.2109375t-0.87890625,0.9521484375t-1.1328125,0.380859375l-0.25390625-0.01953125q0,0.263671875,0.078125,0.7080078125t0.2294921875,0.8837890625t0.390625,0.771484375t0.5810546875,0.33203125q0.498046875,0,0.95703125-0.400390625t0.869140625-0.888671875t0.76171875-0.888671875t0.64453125-0.400390625q0.15625,0,0.322265625,0.048828125t0.185546875,0.2734375q0,0.13671875-0.0732421875,0.224609375t-0.1318359375,0.1953125q-0.302734375,0.517578125-0.6591796875,0.986328125t-0.8056640625,0.849609375t-0.9814453125,0.6005859375t-1.1767578125,0.2197265625q-0.83984375,0-1.396484375-0.2978515625t-0.8984375-0.80078125t-0.4931640625-1.162109375t-0.1513671875-1.3818359375z M51.295703125,26.015625l0.2734375,0.244140625q0.1953125,0.17578125,0.390625,0.078125t0.3515625-0.3564453125t0.2880859375-0.6396484375t0.234375-0.78125t0.1513671875-0.78125t0.048828125-0.634765625l0-0.33203125t-0.029296875-0.3515625t-0.1025390625-0.2783203125t-0.2294921875-0.1416015625q-0.048828125-0.009765625-0.087890625-0.009765625q-0.33203125,0-0.56640625,0.419921875q-0.25390625,0.46875-0.41015625,1.1376953125t-0.224609375,1.3720703125t-0.087890625,1.0546875z M57.70849609375,24.1796875q0-0.283203125,0.1611328125-0.37109375t0.4052734375-0.087890625q0.400390625,0,0.6103515625,0.1513671875t0.2099609375,0.5322265625q0,0.458984375,0.068359375,1.1474609375t0.2001953125,1.337890625t0.3125,1.1181640625t0.3759765625,0.46875q0.361328125,0,0.6396484375-0.556640625t0.48828125-1.3671875t0.361328125-1.7431640625t0.2099609375-1.6650390625q0.0390625-0.400390625,0.1904296875-0.5810546875t0.5517578125-0.1806640625q0.458984375,0,0.6689453125,0.380859375t0.2685546875,0.9375q0.048828125,0.478515625,0.048828125,0.99609375l0,0.166015625l0,0.390625q0,0.37109375,0.009765625,0.6640625l0.283203125,5.986328125l0.0390625,0.99609375q0.01953125,0.13671875,0.029296875,0.2587890625t0.009765625,0.2587890625q0,0.556640625-0.2392578125,0.7177734375t-0.7763671875,0.1611328125q-0.1171875,0-0.2978515625-0.01953125t-0.3515625-0.078125t-0.29296875-0.1611328125t-0.1220703125-0.2587890625l0.0390625-0.09765625q0.048828125-0.5859375,0.048828125-1.23046875l0-0.205078125q-0.009765625-0.76171875-0.048828125-1.54296875t-0.087890625-1.5625t-0.048828125-1.50390625q-0.13671875,0.302734375-0.3173828125,0.625t-0.419921875,0.5810546875t-0.5419921875,0.4296875t-0.68359375,0.1708984375q-0.556640625,0-0.91796875-0.29296875t-0.5615234375-0.76171875t-0.2880859375-1.0498046875t-0.1171875-1.162109375t-0.0390625-1.1083984375t-0.078125-0.888671875z M65.8498046875,23.837890625q0-0.400390625,0.234375-0.6884765625t0.5712890625-0.46875t0.7373046875-0.2685546875t0.7421875-0.087890625q0.263671875,0,0.703125,0.078125t0.859375,0.234375t0.7275390625,0.41015625t0.3076171875,0.595703125q0,0.15625-0.1171875,0.2783203125t-0.244140625,0.1220703125q-0.263671875,0-0.478515625-0.1708984375t-0.4443359375-0.361328125t-0.5029296875-0.361328125t-0.615234375-0.1708984375t-0.6201171875,0.2197265625t-0.2783203125,0.5810546875q0,0.595703125,0.419921875,1.1669921875t0.9228515625,1.201171875t0.9228515625,1.3232421875t0.419921875,1.533203125q0,0.361328125-0.1513671875,0.6103515625t-0.400390625,0.4052734375t-0.5615234375,0.2392578125t-0.60546875,0.0830078125q-0.322265625,0-0.751953125-0.1513671875t-0.810546875-0.400390625t-0.6396484375-0.5810546875t-0.2587890625-0.693359375q0-0.17578125,0.2490234375-0.224609375t0.3662109375-0.048828125q0.05859375,0,0.1806640625,0.0390625t0.2392578125,0.087890625t0.2099609375,0.107421875t0.0732421875,0.126953125q0.09765625,0.1171875,0.2978515625,0.3466796875t0.400390625,0.37109375t0.3515625,0.1025390625t0.1513671875-0.439453125q0-0.76171875-0.41015625-1.4013671875t-0.8935546875-1.25t-0.8935546875-1.2109375t-0.41015625-1.2841796875z"/><path fill="#f00a15" d="M86.537109375,29.775390625q0-0.05859375,0.0390625-0.4150390625t0.1025390625-0.869140625t0.1416015625-1.103515625t0.13671875-1.1181640625t0.1025390625-0.927734375t0.0439453125-0.537109375q-0.078125-0.0390625-0.1904296875-0.1123046875t-0.1123046875-0.1708984375q0-0.13671875,0.1318359375-0.2197265625t0.2294921875-0.1220703125q0.0390625-0.498046875,0.09765625-1.38671875t0.1806640625-1.9189453125t0.341796875-2.08984375t0.5810546875-1.923828125t0.869140625-1.4111328125t1.25-0.546875t1.23046875,0.46875t0.7958984375,1.220703125t0.46875,1.669921875t0.244140625,1.826171875t0.1025390625,1.69921875t0.0390625,1.26953125q0.01953125,0.302734375,0.146484375,0.4052734375t0.2783203125,0.1416015625t0.2734375,0.087890625t0.1220703125,0.244140625q0,0.224609375-0.2734375,0.3125t-0.4296875,0.107421875q0.09765625,1.220703125,0.2685546875,2.40234375t0.4541015625,2.3828125q0.0390625,0.224609375,0.107421875,0.4541015625t0.068359375,0.4443359375q0,0.15625-0.107421875,0.2587890625t-0.2783203125,0.1611328125t-0.341796875,0.078125t-0.2880859375,0.01953125q-0.439453125,0-0.7421875-0.166015625t-0.400390625-0.634765625q-0.263671875-1.259765625-0.517578125-2.646484375q-0.21484375-1.201171875-0.21484375-2.333984375q0-0.17578125,0.009765625-0.3515625q-0.8203125,0-1.650390625,0.0390625t-1.591796875,0.29296875q-0.01953125,0.263671875-0.09765625,0.99609375t-0.17578125,1.572265625t-0.2001953125,1.6064453125t-0.1220703125,1.0888671875q-0.01953125,0.13671875-0.2001953125,0.2587890625t-0.390625,0.1318359375t-0.37109375-0.1318359375t-0.1611328125-0.5029296875z M88.36328125,23.857421875q0.76171875-0.17578125,1.5283203125-0.205078125t1.5478515625-0.068359375q-0.0390625-0.244140625-0.01953125-0.5029296875t0.01953125-0.5224609375q0-0.576171875-0.029296875-1.337890625t-0.087890625-1.54296875t-0.1513671875-1.5380859375t-0.2099609375-1.34765625t-0.2490234375-0.9423828125t-0.2880859375-0.3515625q-0.302734375,0.01953125-0.5712890625,0.5224609375t-0.48828125,1.279296875t-0.400390625,1.73828125t-0.302734375,1.8798828125t-0.2001953125,1.708984375t-0.09765625,1.23046875z M96.37763671875,22.822265625q0-0.458984375,0.1806640625-0.6787109375t0.6591796875-0.2197265625q0.283203125,0,0.5322265625,0.1171875t0.2490234375,0.498046875q0.0390625,0.556640625,0.0390625,1.1669921875t0.107421875,1.1572265625q0.244140625-0.400390625,0.5517578125-0.80078125t0.6787109375-0.712890625t0.810546875-0.5029296875t0.95703125-0.1904296875q0.703125,0,1.19140625,0.29296875t0.8056640625,0.76171875t0.458984375,1.0595703125t0.1416015625,1.1865234375q0,0.91796875-0.2783203125,1.4990234375t-0.7373046875,0.9130859375t-1.0400390625,0.44921875t-1.1669921875,0.1171875q-0.517578125,0-0.966796875-0.2001953125t-0.625-0.7568359375q0-0.15625,0.2294921875-0.1953125t0.3271484375-0.0390625q0.322265625,0,0.478515625,0.17578125q0.1171875,0.13671875,0.2587890625,0.2783203125t0.2978515625,0.1416015625q0.302734375,0,0.634765625-0.1708984375t0.6103515625-0.44921875t0.46875-0.6591796875t0.1904296875-0.78125q0-0.341796875-0.05859375-0.849609375t-0.2001953125-0.9765625t-0.390625-0.810546875t-0.6298828125-0.341796875q-0.576171875,0-1.0400390625,0.52734375t-0.771484375,1.26953125t-0.478515625,1.54296875t-0.1708984375,1.337890625t0.068359375,1.357421875t0.1416015625,1.7041015625t0.1416015625,1.7041015625t0.068359375,1.357421875q0,0.13671875-0.1123046875,0.2197265625t-0.2685546875,0.1318359375t-0.3173828125,0.05859375t-0.2392578125,0.009765625q-0.263671875,0-0.5517578125-0.05859375t-0.3955078125-0.361328125q-0.13671875-0.478515625-0.25390625-1.3623046875t-0.2099609375-1.953125t-0.1611328125-2.24609375t-0.1171875-2.2705078125t-0.0732421875-2.001953125t-0.0244140625-1.4453125z M105.7396484375,22.822265625q0-0.458984375,0.1806640625-0.6787109375t0.6591796875-0.2197265625q0.283203125,0,0.5322265625,0.1171875t0.2490234375,0.498046875q0.0390625,0.556640625,0.0390625,1.1669921875t0.107421875,1.1572265625q0.244140625-0.400390625,0.5517578125-0.80078125t0.6787109375-0.712890625t0.810546875-0.5029296875t0.95703125-0.1904296875q0.703125,0,1.19140625,0.29296875t0.8056640625,0.76171875t0.458984375,1.0595703125t0.1416015625,1.1865234375q0,0.91796875-0.2783203125,1.4990234375t-0.7373046875,0.9130859375t-1.0400390625,0.44921875t-1.1669921875,0.1171875q-0.517578125,0-0.966796875-0.2001953125t-0.625-0.7568359375q0-0.15625,0.2294921875-0.1953125t0.3271484375-0.0390625q0.322265625,0,0.478515625,0.17578125q0.1171875,0.13671875,0.2587890625,0.2783203125t0.2978515625,0.1416015625q0.302734375,0,0.634765625-0.1708984375t0.6103515625-0.44921875t0.46875-0.6591796875t0.1904296875-0.78125q0-0.341796875-0.05859375-0.849609375t-0.2001953125-0.9765625t-0.390625-0.810546875t-0.6298828125-0.341796875q-0.576171875,0-1.0400390625,0.52734375t-0.771484375,1.26953125t-0.478515625,1.54296875t-0.1708984375,1.337890625t0.068359375,1.357421875t0.1416015625,1.7041015625t0.1416015625,1.7041015625t0.068359375,1.357421875q0,0.13671875-0.1123046875,0.2197265625t-0.2685546875,0.1318359375t-0.3173828125,0.05859375t-0.2392578125,0.009765625q-0.263671875,0-0.5517578125-0.05859375t-0.3955078125-0.361328125q-0.13671875-0.478515625-0.25390625-1.3623046875t-0.2099609375-1.953125t-0.1611328125-2.24609375t-0.1171875-2.2705078125t-0.0732421875-2.001953125t-0.0244140625-1.4453125z M115.10166015625,23.623046875q0-0.400390625,0.1416015625-0.673828125t0.6005859375-0.2734375q0.17578125,0,0.439453125,0.0537109375t0.302734375,0.2685546875q0.09765625,0.576171875,0.107421875,1.25t0.068359375,1.26953125q0.224609375-0.439453125,0.576171875-0.947265625t0.80078125-0.9375t0.9765625-0.712890625t1.07421875-0.283203125q0.0390625,0,0.146484375,0.029296875t0.2001953125,0.0830078125t0.1123046875,0.1220703125t-0.107421875,0.126953125q-0.0390625,0.1171875-0.166015625,0.1416015625t-0.224609375,0.0244140625q-0.05859375,0-0.185546875-0.048828125q-0.72265625,0.380859375-1.23046875,1.03515625t-0.830078125,1.4501953125t-0.46875,1.6796875t-0.146484375,1.7236328125q0,0.419921875-0.1904296875,0.5078125t-0.6103515625,0.087890625q-0.224609375,0-0.4736328125-0.048828125t-0.3466796875-0.3125q-0.17578125-0.556640625-0.2880859375-1.279296875t-0.1708984375-1.4892578125t-0.0830078125-1.5087890625t-0.0244140625-1.337890625z M122.041796875,26.7578125q0-0.68359375,0.1513671875-1.611328125t0.5126953125-1.7578125t0.9521484375-1.4111328125t1.4892578125-0.5810546875q0.83984375,0,1.259765625,0.4833984375t0.419921875,1.3037109375q0,0.537109375-0.2001953125,1.1767578125t-0.5712890625,1.2109375t-0.87890625,0.9521484375t-1.1328125,0.380859375l-0.25390625-0.01953125q0,0.263671875,0.078125,0.7080078125t0.2294921875,0.8837890625t0.390625,0.771484375t0.5810546875,0.33203125q0.498046875,0,0.95703125-0.400390625t0.869140625-0.888671875t0.76171875-0.888671875t0.64453125-0.400390625q0.15625,0,0.322265625,0.048828125t0.185546875,0.2734375q0,0.13671875-0.0732421875,0.224609375t-0.1318359375,0.1953125q-0.302734375,0.517578125-0.6591796875,0.986328125t-0.8056640625,0.849609375t-0.9814453125,0.6005859375t-1.1767578125,0.2197265625q-0.83984375,0-1.396484375-0.2978515625t-0.8984375-0.80078125t-0.4931640625-1.162109375t-0.1513671875-1.3818359375z M123.78984375,26.015625l0.2734375,0.244140625q0.1953125,0.17578125,0.390625,0.078125t0.3515625-0.3564453125t0.2880859375-0.6396484375t0.234375-0.78125t0.1513671875-0.78125t0.048828125-0.634765625l0-0.33203125t-0.029296875-0.3515625t-0.1025390625-0.2783203125t-0.2294921875-0.1416015625q-0.048828125-0.009765625-0.087890625-0.009765625q-0.33203125,0-0.56640625,0.419921875q-0.25390625,0.46875-0.41015625,1.1376953125t-0.224609375,1.3720703125t-0.087890625,1.0546875z M130.20263671875,26.162109375q0-0.703125,0.1806640625-1.4111328125t0.5615234375-1.26953125t0.9716796875-0.9130859375t1.3916015625-0.3515625q0.341796875,0,0.751953125,0.0830078125t0.7568359375,0.263671875t0.5859375,0.46875t0.2392578125,0.7080078125q0,0.263671875-0.13671875,0.3515625t-0.361328125,0.087890625l-0.068359375-0.09765625t-0.1904296875-0.2490234375t-0.2587890625-0.322265625t-0.263671875-0.2880859375q-0.400390625-0.400390625-0.751953125-0.4296875l-0.078125,0q-0.29296875,0-0.546875,0.17578125q-0.283203125,0.21484375-0.5029296875,0.60546875t-0.3662109375,0.830078125t-0.2294921875,0.888671875t-0.0830078125,0.7421875q0,0.400390625,0.0927734375,0.9130859375t0.3125,0.9716796875t0.556640625,0.771484375t0.8642578125,0.3125q0.478515625,0,0.869140625-0.234375t0.7470703125-0.5224609375t0.6982421875-0.517578125t0.703125-0.2294921875q0.15625,0,0.3173828125,0.0390625t0.1611328125,0.205078125l0,0.05859375q-0.17578125,0.458984375-0.595703125,0.810546875t-0.9423828125,0.6103515625t-1.083984375,0.3857421875t-1.0009765625,0.126953125q-0.8203125,0-1.4404296875-0.2685546875t-1.0302734375-0.7373046875t-0.6201171875-1.1279296875t-0.2099609375-1.4404296875z M138.7248046875,26.123046875q0-0.8984375,0.2099609375-1.7626953125t0.3564453125-1.7236328125q0.0390625-0.224609375,0.3076171875-0.2783203125t0.4541015625-0.0537109375q0.322265625,0,0.517578125,0.09765625q0.078125,0.0390625,0.146484375,0.087890625t0.068359375,0.126953125q0,0.83984375-0.2001953125,1.640625t-0.2001953125,1.69921875q0,0.302734375,0.0439453125,0.5712890625t0.0830078125,0.5322265625l0.05859375,0.283203125q0,0.078125,0.009765625,0.13671875t0.029296875,0.13671875q0,0.17578125-0.2490234375,0.2392578125t-0.4345703125,0.0634765625q-0.283203125,0-0.5224609375-0.1123046875t-0.3759765625-0.3857421875l-0.13671875-0.283203125q-0.1171875-0.224609375-0.1171875-0.5029296875t-0.048828125-0.5126953125z M139.3498046875,20.244140625l0-0.185546875q0-0.458984375,0.2294921875-0.8203125t0.6884765625-0.361328125q0.05859375,0,0.1123046875,0.009765625t0.1123046875,0.009765625q0.1171875,0.01953125,0.3076171875,0.0927734375t0.1904296875,0.2294921875l0,0.01953125q-0.0390625,0.078125-0.048828125,0.1611328125t-0.048828125,0.1416015625l0.01953125-0.01953125q-0.1171875,0.302734375-0.1904296875,0.48828125t-0.1611328125,0.2978515625t-0.2197265625,0.1611328125t-0.3759765625,0.048828125q-0.0390625,0-0.13671875-0.009765625t-0.2099609375-0.0390625t-0.1904296875-0.078125t-0.078125-0.146484375z M142.98916015625,26.357421875q0-0.6640625,0.1806640625-1.279296875t0.5419921875-1.0986328125t0.9033203125-0.771484375t1.2548828125-0.2880859375q0.439453125,0,0.9716796875,0.1318359375t1.0009765625,0.390625t0.78125,0.6591796875t0.3125,0.91796875q0,0.244140625-0.0830078125,0.37109375t-0.3369140625,0.126953125l-0.107421875-0.01953125q0.283203125,0.76171875,0.48828125,1.5625t0.400390625,1.6015625q0.078125,0.15625,0.1171875,0.2783203125t0.0390625,0.2392578125q0,0.15625-0.087890625,0.2587890625t-0.2294921875,0.1513671875t-0.29296875,0.068359375t-0.2685546875,0.01953125q-0.419921875,0-0.6298828125-0.146484375t-0.302734375-0.400390625t-0.1123046875-0.5712890625t-0.078125-0.6396484375q-0.1171875,0.380859375-0.3076171875,0.7421875t-0.44921875,0.6494140625t-0.6103515625,0.458984375t-0.791015625,0.1708984375q-0.64453125,0-1.083984375-0.37109375t-0.7080078125-0.9130859375t-0.390625-1.1572265625t-0.1220703125-1.142578125z M144.37587890625,26.220703125q0,0.361328125,0.048828125,0.76171875t0.1611328125,0.791015625t0.2880859375,0.7373046875t0.439453125,0.6103515625q0.478515625-0.517578125,0.7080078125-1.259765625t0.41015625-1.4306640625t0.41015625-1.181640625t0.7080078125-0.4931640625q0.302734375,0,0.5078125,0.107421875q-0.09765625-0.244140625-0.322265625-0.4736328125t-0.5029296875-0.419921875t-0.576171875-0.3125t-0.5615234375-0.1220703125q-0.078125,0-0.1806640625,0.0244140625t-0.1611328125,0.0048828125q-0.400390625,0.1171875-0.6591796875,0.4052734375t-0.419921875,0.6787109375t-0.2294921875,0.80078125t-0.068359375,0.771484375z M151.05234375,20.15625q0-0.13671875,0.29296875-0.234375t0.6640625-0.1611328125t0.7177734375-0.0927734375t0.4736328125-0.048828125q0-0.263671875,0.01953125-0.5322265625t0.107421875-0.478515625t0.2783203125-0.3369140625t0.5322265625-0.126953125q0.283203125,0,0.4296875,0.068359375t0.3125,0.283203125q0.0390625,0.1171875,0.0390625,0.224609375l0,0.3271484375t-0.01953125,0.3369140625q0.361328125-0.0390625,0.7177734375-0.0927734375t0.7177734375-0.0537109375q0.263671875,0,0.361328125,0.009765625t0.1953125,0.234375q0.078125,0.224609375-0.1904296875,0.341796875t-0.64453125,0.17578125t-0.7470703125,0.087890625t-0.44921875,0.029296875q-0.1171875,1.6796875-0.2392578125,3.330078125t-0.1220703125,3.349609375q0,0.76171875,0.048828125,1.572265625t0.2734375,1.533203125q0.05859375,0.224609375,0.1953125,0.419921875t0.13671875,0.419921875q0,0.13671875-0.107421875,0.21484375t-0.2587890625,0.1318359375t-0.302734375,0.0634765625t-0.2490234375,0.009765625q-0.615234375,0-0.9375-0.458984375t-0.4638671875-1.0986328125t-0.1513671875-1.3134765625t-0.009765625-1.09375q0-0.859375,0.0341796875-1.7578125t0.0830078125-1.77734375t0.13671875-1.71875t0.205078125-1.5625q-0.341796875,0.0390625-0.6689453125,0.087890625t-0.6689453125,0.048828125q-0.078125,0-0.2099609375-0.009765625t-0.2490234375-0.048828125t-0.2001953125-0.107421875t-0.0830078125-0.1953125z M158.51982421875,26.7578125q0-0.68359375,0.1513671875-1.611328125t0.5126953125-1.7578125t0.9521484375-1.4111328125t1.4892578125-0.5810546875q0.83984375,0,1.259765625,0.4833984375t0.419921875,1.3037109375q0,0.537109375-0.2001953125,1.1767578125t-0.5712890625,1.2109375t-0.87890625,0.9521484375t-1.1328125,0.380859375l-0.25390625-0.01953125q0,0.263671875,0.078125,0.7080078125t0.2294921875,0.8837890625t0.390625,0.771484375t0.5810546875,0.33203125q0.498046875,0,0.95703125-0.400390625t0.869140625-0.888671875t0.76171875-0.888671875t0.64453125-0.400390625q0.15625,0,0.322265625,0.048828125t0.185546875,0.2734375q0,0.13671875-0.0732421875,0.224609375t-0.1318359375,0.1953125q-0.302734375,0.517578125-0.6591796875,0.986328125t-0.8056640625,0.849609375t-0.9814453125,0.6005859375t-1.1767578125,0.2197265625q-0.83984375,0-1.396484375-0.2978515625t-0.8984375-0.80078125t-0.4931640625-1.162109375t-0.1513671875-1.3818359375z M160.26787109375,26.015625l0.2734375,0.244140625q0.1953125,0.17578125,0.390625,0.078125t0.3515625-0.3564453125t0.2880859375-0.6396484375t0.234375-0.78125t0.1513671875-0.78125t0.048828125-0.634765625l0-0.33203125t-0.029296875-0.3515625t-0.1025390625-0.2783203125t-0.2294921875-0.1416015625q-0.048828125-0.009765625-0.087890625-0.009765625q-0.33203125,0-0.56640625,0.419921875q-0.25390625,0.46875-0.41015625,1.1376953125t-0.224609375,1.3720703125t-0.087890625,1.0546875z M166.6806640625,26.240234375q0-0.76171875,0.1611328125-1.3818359375t0.5126953125-1.0498046875t0.9228515625-0.6689453125t1.3916015625-0.2392578125q0.458984375,0,0.9375,0.1220703125t0.8203125,0.4541015625q0-0.1953125,0.0390625-0.8056640625t0.09765625-1.4208984375t0.1220703125-1.69921875t0.1123046875-1.650390625t0.087890625-1.279296875t0.05859375-0.5859375q0.09765625-0.283203125,0.361328125-0.3369140625t0.498046875-0.0537109375q0.615234375,0,0.7568359375,0.1953125t0.1416015625,0.78125q0,2.138671875-0.1904296875,4.2578125t-0.1904296875,4.2578125q0,1.376953125,0.0537109375,2.7685546875t0.3857421875,2.7392578125l0.107421875,0.09765625l0.05859375,0.17578125l-0.146484375,0.224609375q-0.37109375,0.234375-0.859375,0.234375l-0.0390625,0q-0.498046875,0-0.91796875-0.234375q-0.15625-0.09765625-0.2587890625-0.5810546875t-0.1611328125-1.064453125t-0.087890625-1.1181640625t-0.048828125-0.76171875q-0.341796875,0.78125-0.9326171875,1.3427734375t-1.4892578125,0.5615234375q-0.703125,0-1.15234375-0.302734375t-0.6982421875-0.771484375t-0.3515625-1.0498046875t-0.1025390625-1.1572265625z M167.8623046875,26.298828125q0,0.224609375,0.0537109375,0.6640625t0.1708984375,0.87890625t0.3271484375,0.78125t0.5517578125,0.341796875q0.458984375-0.224609375,0.830078125-0.7470703125t0.6396484375-1.15234375t0.419921875-1.259765625t0.1513671875-1.0888671875q0-0.576171875-0.419921875-0.95703125t-1.005859375-0.380859375q-0.17578125,0-0.3564453125,0.068359375t-0.3369140625,0.15625q-0.361328125,0.341796875-0.5615234375,0.6201171875t-0.302734375,0.576171875t-0.1318359375,0.6591796875t-0.029296875,0.83984375z"/></svg>
